<svg version="1.0"
 width="1157.000000pt" height="928.000000pt" viewBox="0 0 1157.000000 928.000000"
 preserveAspectRatio="xMidYMid meet">

<g transform="translate(0.000000,928.000000) scale(0.100000,-0.100000)"
fill="#fff" stroke="none">
<path d="M6850 9251 c-76 -24 -138 -80 -161 -148 -10 -26 -14 -89 -14 -198 0
-153 1 -163 26 -210 32 -62 93 -110 159 -124 71 -15 1409 -15 1480 0 64 14
127 61 157 118 22 41 23 55 23 218 0 189 -7 223 -58 276 -15 16 -45 39 -67 50
-40 22 -43 22 -780 24 -407 1 -751 -2 -765 -6z"/>
<path d="M7262 8438 c-19 -19 -17 -449 3 -514 27 -92 104 -147 230 -165 162
-22 302 23 360 116 l30 48 3 249 c2 182 0 253 -9 264 -9 12 -63 14 -308 14
-218 0 -300 -3 -309 -12z"/>
<path d="M6925 7934 c-474 -84 -925 -243 -1318 -465 -147 -83 -391 -249 -537
-365 -173 -138 -465 -430 -604 -604 -719 -901 -1013 -2015 -830 -3150 161
-1005 718 -1924 1539 -2542 490 -369 1058 -619 1665 -732 278 -52 391 -61 740
-60 347 0 447 8 720 60 1557 292 2790 1468 3155 3009 28 120 70 368 87 520 19
168 16 647 -5 828 -107 906 -483 1700 -1107 2341 -520 534 -1154 902 -1865
1084 -135 35 -422 92 -461 92 -7 0 -15 -17 -19 -37 -24 -132 -142 -248 -304
-301 -63 -21 -97 -25 -196 -26 -71 -1 -142 5 -175 13 -172 42 -306 160 -350
309 -15 48 -12 47 -135 26z m1015 -780 c1407 -160 2546 -1250 2769 -2650 155
-971 -138 -1942 -802 -2662 -728 -788 -1801 -1156 -2857 -981 -822 137 -1543
582 -2048 1263 -605 818 -773 1924 -440 2901 394 1156 1435 1995 2645 2129 76
9 167 18 203 20 112 6 389 -4 530 -20z"/>
<path d="M7510 5435 c0 -877 -3 -1105 -12 -1105 -7 0 -40 -13 -73 -28 -79 -38
-151 -110 -189 -192 -29 -60 -31 -73 -31 -175 0 -101 2 -115 29 -168 149 -306
584 -305 729 0 30 63 32 76 32 173 0 97 -2 110 -31 170 -17 36 -52 86 -77 112
-44 43 -153 108 -184 108 -11 0 -13 188 -13 1105 l0 1105 -90 0 -90 0 0 -1105z"/>
<path d="M8280 4905 c-189 -189 -342 -346 -340 -347 3 -2 35 -18 73 -37 78
-39 130 -93 172 -180 17 -33 32 -60 35 -60 3 -1 160 154 350 344 l345 345
-140 140 c-77 77 -142 140 -145 140 -3 0 -160 -155 -350 -345z"/>
<path d="M1944 7284 c-54 -19 -118 -75 -152 -132 -24 -42 -27 -57 -27 -137 0
-73 4 -98 22 -130 29 -54 88 -109 143 -134 44 -20 61 -21 1011 -21 l965 0 52
26 c179 89 218 320 78 460 -90 90 -17 84 -1100 83 -807 0 -957 -3 -992 -15z"/>
<path d="M893 5870 c-63 -13 -116 -44 -161 -95 -96 -110 -96 -266 2 -382 15
-17 54 -46 88 -62 l61 -31 1117 0 1117 0 61 31 c222 110 211 417 -17 523 -46
21 -50 21 -1136 23 -600 0 -1109 -3 -1132 -7z"/>
<path d="M219 4394 c-60 -18 -140 -90 -170 -151 -31 -65 -32 -169 -3 -234 31
-66 78 -114 142 -146 l57 -28 1305 0 1305 0 49 24 c64 32 113 82 144 149 21
47 24 64 20 131 -7 112 -55 188 -152 239 l-51 27 -1300 2 c-1105 1 -1307 0
-1346 -13z"/>
<path d="M862 2925 c-62 -19 -117 -60 -152 -113 -40 -60 -53 -114 -47 -187 8
-104 67 -188 163 -236 l49 -24 1104 -3 c1270 -3 1176 -9 1271 86 86 86 111
187 74 295 -20 60 -91 139 -152 169 l-47 23 -1110 2 c-913 2 -1118 -1 -1153
-12z"/>
<path d="M1944 1504 c-54 -19 -118 -75 -152 -132 -24 -42 -27 -57 -27 -137 0
-106 17 -147 87 -211 91 -84 21 -79 1088 -79 903 0 947 1 994 19 105 40 176
135 184 245 7 97 -17 161 -82 226 -92 91 -18 85 -1101 84 -806 0 -956 -3 -991
-15z"/>
</g>
</svg>
